<svg width="36" height="36" viewBox="0 0 36 36" fill="none" xmlns="http://www.w3.org/2000/svg">
<path d="M2.88 20.9952L7.89841 23.8932V29.6856L2.88 26.7876V20.9952Z" fill="#99320A"/>
<path d="M22.9465 20.9952L17.9317 23.8932L12.9133 20.9952L17.9317 18.0972L22.9465 20.9952Z" fill="#FF6400"/>
<path d="M2.88 15.2028L7.89841 18.0972V23.8932L2.88 20.9952V15.2028Z" fill="#99320A"/>
<path d="M12.9133 15.2028L17.9317 18.0972V23.8932L12.9133 20.9952V15.2028Z" fill="#FF6400"/>
<path d="M22.9465 15.2028L17.9317 18.0972L12.9133 15.2028L17.9317 12.3048L22.9465 15.2028Z" fill="#FF6400"/>
<path d="M22.9464 20.9952L17.9316 23.8932V18.0972L22.9464 15.2028V20.9952Z" fill="#FF6400"/>
<path d="M17.9317 18.0972L12.9133 20.9952V15.2028L17.9317 12.3048V18.0972Z" fill="#FF6400"/>
<path d="M22.9465 20.9952L17.9317 23.8932L12.9133 20.9952L17.9317 18.0972L22.9465 20.9952Z" fill="#FF6400"/>
<path d="M12.9133 15.2028L17.9317 18.0972V23.8932L12.9133 20.9952V15.2028Z" fill="#FF6400"/>
<path d="M22.9465 15.2028L17.9317 18.0972L12.9133 15.2028L17.9317 12.3048L22.9465 15.2028Z" fill="#FF6400"/>
<path d="M22.9464 20.9952L17.9316 23.8932V18.0972L22.9464 15.2028V20.9952Z" fill="#FF6400"/>
<path d="M17.9317 18.0972L12.9133 20.9952V15.2028L17.9317 12.3048V18.0972Z" fill="#FF6400"/>
<path d="M17.9316 12.3048L22.9464 15.2028V20.9952L17.9316 18.0972V12.3048Z" fill="#FF6400"/>
<path d="M32.9796 26.7876L27.9648 29.6856V23.8932L32.9796 20.9952V26.7876Z" fill="#E64C0F"/>
<path d="M32.9796 20.9952L27.9648 23.8932V18.0972L32.9796 15.2028V20.9952Z" fill="#E64C0F"/>
<path d="M17.9316 12.3048L22.9464 15.2028V20.9952L17.9316 18.0972V12.3048Z" fill="#FF6400"/>
<path d="M22.9465 3.618L17.9317 6.5124L12.9133 3.618L17.9317 0.720001L22.9465 3.618Z" fill="#FF6400"/>
<path d="M17.9316 6.51241L12.9132 9.41041L7.89838 6.51241L12.9132 3.61801L17.9316 6.51241Z" fill="#FF6400"/>
<path d="M2.88 9.4104L7.89841 12.3048V18.0972L2.88 15.2028V9.4104Z" fill="#99320A"/>
<path d="M12.9132 9.41039L7.89841 12.3048L2.88 9.41039L7.89841 6.51239L12.9132 9.41039Z" fill="#FF6400"/>
<path d="M27.9648 6.51241L22.9464 9.41041L17.9316 6.51241L22.9464 3.61801L27.9648 6.51241Z" fill="#FF6400"/>
<path d="M32.9796 9.41039L27.9648 12.3048L22.9464 9.41039L27.9648 6.51239L32.9796 9.41039Z" fill="#FF6400"/>
<path d="M32.9795 15.2028L27.9647 18.0972V12.3048L32.9795 9.4104V15.2028Z" fill="#E64C0F"/>
<path d="M12.9133 15.2028L17.9317 18.0972V23.8932L12.9133 20.9952V15.2028Z" fill="#99320A"/>
<path d="M22.9465 15.2028L17.9317 18.0972L12.9133 15.2028L17.9317 12.3048L22.9465 15.2028Z" fill="#FF6400"/>
<path d="M22.9464 20.9952L17.9316 23.8932V18.0972L22.9464 15.2028V20.9952Z" fill="#E64C0F"/>
<path d="M27.9648 29.6856L22.9464 32.58V26.7876L27.9648 23.8932V29.6856Z" fill="#E64C0F"/>
<path d="M12.9133 26.7876L17.9317 29.6856V35.478L12.9133 32.58V26.7876Z" fill="#99320A"/>
<path d="M22.9464 32.58L17.9316 35.478V29.6856L22.9464 26.7876V32.58Z" fill="#E64C0F"/>
</svg>
